<svg xmlns="http://www.w3.org/2000/svg" viewBox="0 0 100 100" width="100" height="100">
  <!-- Sleek dark stone-950 background -->
  <rect width="100" height="100" rx="24" fill="#0c0a09"/>
  <!-- Stylized "F" monogram representing Flex -->
  <path d="M35 25 H65 C68 25 70 27 70 30 C70 33 68 35 65 35 H45 V48 H60 C63 48 65 50 65 53 C65 56 63 58 60 58 H45 V75 C45 78 43 80 40 80 C37 80 35 78 35 75 Z" fill="#fafaf9"/>
  <!-- Stylized droplet representing Drip -->
  <path d="M52 68 C52 75 58 80 65 80 C72 80 78 75 78 68 C78 61 65 48 65 48 C65 48 52 61 52 68 Z" fill="#e7e5e4"/>
</svg>
